
<svg xmlns="http://www.w3.org/2000/svg" viewBox="0 0 200 280" width="200" height="280" aria-label="Qalam mascot, thinking">
  <ellipse cx="100" cy="265" rx="60" ry="8" fill="#0E5B5F" opacity="0.10"></ellipse>
  <path d="M60 60 Q60 40 100 40 Q140 40 140 60 L140 210 Q140 230 100 230 Q60 230 60 210 Z" fill="#0E5B5F"></path>
  <path d="M60 110 Q100 116 140 110" fill="none" stroke="#0a4448" stroke-width="2" opacity="0.5"></path>
  <path d="M60 160 Q100 166 140 160" fill="none" stroke="#0a4448" stroke-width="2" opacity="0.5"></path>
  <path d="M72 60 Q70 130 76 200" stroke="#1a797d" stroke-width="6" stroke-linecap="round" fill="none" opacity="0.7"></path>
  <path d="M60 210 L100 270 L140 210 Z" fill="#168A8F"></path>

  <rect x="70" y="80" width="60" height="60" rx="14" fill="#FAF6EE"></rect>
  
  <circle cx="86" cy="106" r="5" fill="#222A2E"></circle>
  <circle cx="114" cy="106" r="5" fill="#222A2E"></circle>
  <circle cx="86" cy="104" r="1.6" fill="#fff"></circle>
  <circle cx="114" cy="104" r="1.6" fill="#fff"></circle>
  
  <path d="M92 124 Q100 122 102 126" fill="none" stroke="#222A2E" stroke-width="2.5" stroke-linecap="round"></path>

  
  <path d="M142 150 Q160 145 135 138" stroke="#0E5B5F" stroke-width="10" stroke-linecap="round" fill="none"></path>
  <circle cx="135" cy="138" r="8" fill="#0E5B5F"></circle>
  <path d="M58 150 Q42 160 44 178" stroke="#0E5B5F" stroke-width="10" stroke-linecap="round" fill="none"></path>
  <circle cx="44" cy="178" r="8" fill="#0E5B5F"></circle>

  
  <circle cx="160" cy="60" r="3" fill="#168A8F" opacity="0.6"></circle>
  <circle cx="172" cy="46" r="5" fill="#168A8F" opacity="0.8"></circle>
  <circle cx="186" cy="28" r="7" fill="#168A8F"></circle>
</svg>