<svg viewBox="0 0 200 280"><ellipse cx="100" cy="265" rx="60" ry="8" fill="#0E5B5F" opacity="0.10"></ellipse><g transform="rotate(-6 100 140)"><path d="M60 60 Q60 40 100 40 Q140 40 140 60 L140 210 Q140 230 100 230 Q60 230 60 210 Z" fill="#0E5B5F"></path><path d="M60 110 Q100 116 140 110" fill="none" stroke="#0a4448" stroke-width="2" opacity="0.5"></path><path d="M60 160 Q100 166 140 160" fill="none" stroke="#0a4448" stroke-width="2" opacity="0.5"></path><path d="M72 60 Q70 130 76 200" stroke="#1a797d" stroke-width="6" stroke-linecap="round" fill="none" opacity="0.7"></path><path d="M60 210 L100 270 L140 210 Z" fill="#168A8F"></path><path d="M100 230 L100 270" stroke="#F2A60C" stroke-width="2" stroke-linecap="round"></path><rect x="70" y="80" width="60" height="60" rx="14" fill="#FAF6EE"></rect><path d="M80 108 Q86 100 92 108" fill="none" stroke="#222A2E" stroke-width="3" stroke-linecap="round"></path><path d="M108 108 Q114 100 120 108" fill="none" stroke="#222A2E" stroke-width="3" stroke-linecap="round"></path><path d="M84 120 Q100 138 116 120" fill="none" stroke="#222A2E" stroke-width="3" stroke-linecap="round"></path><circle cx="80" cy="124" r="3" fill="#FF8A6B" opacity="0.7"></circle><circle cx="120" cy="124" r="3" fill="#FF8A6B" opacity="0.7"></circle></g><path d="M58 100 Q42 70 48 50" stroke="#0E5B5F" stroke-width="10" stroke-linecap="round" fill="none"></path><path d="M142 100 Q158 70 152 50" stroke="#0E5B5F" stroke-width="10" stroke-linecap="round" fill="none"></path><circle cx="48" cy="50" r="8" fill="#0E5B5F"></circle><circle cx="152" cy="50" r="8" fill="#0E5B5F"></circle><circle cx="32" cy="40" r="4" fill="#F2A60C"></circle><circle cx="170" cy="34" r="5" fill="#F2A60C"></circle><circle cx="20" cy="120" r="3" fill="#F2A60C"></circle><circle cx="180" cy="130" r="3" fill="#F2A60C"></circle></svg>