
<svg xmlns="http://www.w3.org/2000/svg" viewBox="0 0 200 280" width="200" height="280" aria-label="Qalam mascot, try again">
  <ellipse cx="100" cy="265" rx="60" ry="8" fill="#0E5B5F" opacity="0.10"></ellipse>
  <path d="M60 60 Q60 40 100 40 Q140 40 140 60 L140 210 Q140 230 100 230 Q60 230 60 210 Z" fill="#0E5B5F"></path>
  <path d="M60 110 Q100 116 140 110" fill="none" stroke="#0a4448" stroke-width="2" opacity="0.5"></path>
  <path d="M60 160 Q100 166 140 160" fill="none" stroke="#0a4448" stroke-width="2" opacity="0.5"></path>
  <path d="M72 60 Q70 130 76 200" stroke="#1a797d" stroke-width="6" stroke-linecap="round" fill="none" opacity="0.7"></path>
  <path d="M60 210 L100 270 L140 210 Z" fill="#168A8F"></path>

  <rect x="70" y="80" width="60" height="60" rx="14" fill="#FAF6EE"></rect>
  
  <path d="M82 110 Q86 106 90 110" fill="none" stroke="#222A2E" stroke-width="3" stroke-linecap="round"></path>
  <path d="M110 110 Q114 106 118 110" fill="none" stroke="#222A2E" stroke-width="3" stroke-linecap="round"></path>
  
  <path d="M88 128 Q100 124 112 128" fill="none" stroke="#222A2E" stroke-width="2.5" stroke-linecap="round"></path>
  
  <circle cx="80" cy="124" r="3" fill="#FF8A6B" opacity="0.7"></circle>
  <circle cx="120" cy="124" r="3" fill="#FF8A6B" opacity="0.7"></circle>

  
  <path d="M58 150 Q42 145 38 165" stroke="#0E5B5F" stroke-width="10" stroke-linecap="round" fill="none"></path>
  <path d="M142 150 Q158 145 162 165" stroke="#0E5B5F" stroke-width="10" stroke-linecap="round" fill="none"></path>
  <circle cx="38" cy="165" r="8" fill="#0E5B5F"></circle>
  <circle cx="162" cy="165" r="8" fill="#0E5B5F"></circle>
</svg>